<?xml version="1.0" encoding="utf-8"?>
<!-- Generator: Adobe Illustrator 25.3.1, SVG Export Plug-In . SVG Version: 6.00 Build 0)  -->
<svg version="1.1" id="Capa_1" xmlns="http://www.w3.org/2000/svg" xmlns:xlink="http://www.w3.org/1999/xlink" x="0px" y="0px"
	 viewBox="0 0 512 512" style="enable-background:new 0 0 512 512;" xml:space="preserve">
<style type="text/css">
	.st0{fill:url(#SVGID_1_);}
</style>
<linearGradient id="SVGID_1_" gradientUnits="userSpaceOnUse" x1="460.0769" y1="477.8893" x2="690.0769" y2="691.8893">
	<stop  offset="0" style="stop-color:#FFFFFF"/>
	<stop  offset="1" style="stop-color:#000000"/>
</linearGradient>
<path class="st0" d="M194.6,32h122.8c20.7,0,39,13.2,45.5,32.8L373.3,96H448c35.3,0,64,28.7,64,64v256c0,35.3-28.7,64-64,64H64
	c-35.3,0-64-28.7-64-64V160c0-35.3,28.6-64,64-64h74.7l10.4-31.2C155.6,45.2,173.9,32,194.6,32L194.6,32z M256,384c53,0,96-43,96-96
	c0-53.9-43-96-96-96c-53.9,0-96,42.1-96,96C160,341,202.1,384,256,384z"/>
</svg>
