<?xml version="1.0" encoding="utf-8"?>
<!-- Generator: Adobe Illustrator 25.3.1, SVG Export Plug-In . SVG Version: 6.00 Build 0)  -->
<svg version="1.1" id="Capa_1" xmlns="http://www.w3.org/2000/svg" xmlns:xlink="http://www.w3.org/1999/xlink" x="0px" y="0px"
	 viewBox="0 0 576 512" style="enable-background:new 0 0 576 512;" xml:space="preserve">
<style type="text/css">
	.st0{fill:url(#SVGID_1_);}
</style>
<linearGradient id="SVGID_1_" gradientUnits="userSpaceOnUse" x1="552.142" y1="413.3305" x2="918.142" y2="631.3304">
	<stop  offset="0" style="stop-color:#FFFFFF"/>
	<stop  offset="1" style="stop-color:#000000"/>
</linearGradient>
<path class="st0" d="M512,448H64c-35.3,0-64-28.6-64-64V128c0-35.3,28.6-64,64-64h448c35.3,0,64,28.7,64,64v256
	C576,419.3,547.3,448,512,448z M128,180v-40c0-6.6-5.4-12-12-12H76c-6.6,0-12,5.4-12,12v40c0,6.6,5.4,12,12,12h40
	C122.6,192,128,186.6,128,180z M224,180v-40c0-6.6-5.4-12-12-12h-40c-6.6,0-12,5.4-12,12v40c0,6.6,5.4,12,12,12h40
	C218.6,192,224,186.6,224,180z M320,180v-40c0-6.6-5.4-12-12-12h-40c-6.6,0-12,5.4-12,12v40c0,6.6,5.4,12,12,12h40
	C314.6,192,320,186.6,320,180z M416,180v-40c0-6.6-5.4-12-12-12h-40c-6.6,0-12,5.4-12,12v40c0,6.6,5.4,12,12,12h40
	C410.6,192,416,186.6,416,180z M512,180v-40c0-6.6-5.4-12-12-12h-40c-6.6,0-12,5.4-12,12v40c0,6.6,5.4,12,12,12h40
	C506.6,192,512,186.6,512,180z M128,276v-40c0-6.6-5.4-12-12-12H76c-6.6,0-12,5.4-12,12v40c0,6.6,5.4,12,12,12h40
	C122.6,288,128,282.6,128,276z M224,276v-40c0-6.6-5.4-12-12-12h-40c-6.6,0-12,5.4-12,12v40c0,6.6,5.4,12,12,12h40
	C218.6,288,224,282.6,224,276z M320,276v-40c0-6.6-5.4-12-12-12h-40c-6.6,0-12,5.4-12,12v40c0,6.6,5.4,12,12,12h40
	C314.6,288,320,282.6,320,276z M416,276v-40c0-6.6-5.4-12-12-12h-40c-6.6,0-12,5.4-12,12v40c0,6.6,5.4,12,12,12h40
	C410.6,288,416,282.6,416,276z M512,276v-40c0-6.6-5.4-12-12-12h-40c-6.6,0-12,5.4-12,12v40c0,6.6,5.4,12,12,12h40
	C506.6,288,512,282.6,512,276z M128,372v-40c0-6.6-5.4-12-12-12H76c-6.6,0-12,5.4-12,12v40c0,6.6,5.4,12,12,12h40
	C122.6,384,128,378.6,128,372z M416,372v-40c0-6.6-5.4-12-12-12H172c-6.6,0-12,5.4-12,12v40c0,6.6,5.4,12,12,12h232
	C410.6,384,416,378.6,416,372z M512,372v-40c0-6.6-5.4-12-12-12h-40c-6.6,0-12,5.4-12,12v40c0,6.6,5.4,12,12,12h40
	C506.6,384,512,378.6,512,372z"/>
</svg>
